<svg xmlns="http://www.w3.org/2000/svg" height="800" width="1200" viewBox="-5.05536 -4.8961 43.81312 29.3766"><path d="M32.6863.4008c.2378-.097.4805-.1948.7232-.2907C33.3114.0466 33.2014 0 33.075 0H20.751c-.3457 0-.6258.2808-.6258.6269v6.569c2.1682-1.877 7.3406-4.6443 12.561-6.7951" fill="#ee293d"/><path d="M32.609.6973c-3.3756 1.3903-6.0074 3.1919-6.044 3.9698-.0625 1.2777 4.809.2028 7.1373.4215V.6267c0-.1178-.042-.223-.099-.3182a26.9794 26.9794 0 00-.9942.3888M27.0216 9.713c.004-1.0933-4.7283-.2268-6.8965-.4741v3.6244c0 .346.2801.6265.6262.6265h.8943c3.12-1.409 5.339-3.018 5.376-3.7768m-4.6705 3.7767h10.7241c.3457 0 .6272-.28.6272-.6265V7.2653c-2.1946 1.7681-7.0079 4.3177-11.3513 6.2244" fill="#ee293d"/><path d="M.0483 19.2937l-.031-.0229v-.8057l.1397.1774c.2078.266.4593.4029.7239.4029.2967-.002.4036-.1785.405-.297.009-.2424-.2748-.411-.6054-.609C.361 17.9447.0021 17.7048 0 17.248c-.0003-.261.0981-.4847.2734-.6379.1746-.1524.4205-.2342.707-.2342.2437 0 .4857.0755.7066.223l.0346.0222v.7089l-.1323-.1263c-.2399-.2268-.4614-.2871-.6442-.2878-.2512.003-.3923.1227-.3926.2751-.0113.2128.2702.3574.605.5461.3228.187.682.4474.682.9631-.0008.5084-.393.883-.9113.884h-.004c-.3348 0-.617-.0944-.8756-.2906M4.9 18.1939l.7399-.0007-.3814-.8654zm1.3551 1.3522l-.3563-.8132H4.6803l-.3591.8132h-.6043l1.3433-3.1479h.4036l1.3988 3.1479zm5.0187-.0001l-1.8743-2.1597v2.1597H8.842v-3.1309h.453l1.9018 2.1738v-2.1738h.5567v3.1309zm5.1942-.0034v-2.1812l-.8096 1.017h-.1439l-.81-1.017v2.1812h-.5827V16.413h.5157l.949 1.1747.9529-1.1747h.5126v3.1295zm3.0827 0v-3.1292h.5828v3.1292m4.7975-.0042l-1.8737-2.158v2.158H22.5v-3.1302h.4536l1.9008 2.1728v-2.1728h.557v3.1302zm4.4181-1.3226l-.3806-.865-.3584.865zm.6156 1.3198l-.3556-.8125h-1.2188l-.3588.8125h-.6057l1.3437-3.1472h.4032l1.3999 3.1472z" fill="#231f20"/></svg>